<?xml version="1.0" encoding="UTF-8"?>
<svg version="1.1" xmlns="http://www.w3.org/2000/svg" width="3130" height="1026">
<path d="M0 0 C0.91426758 0.45246094 1.82853516 0.90492187 2.77050781 1.37109375 C24.06018823 11.97267824 44.01085685 24.7031363 63 39 C63.59844727 39.44682129 64.19689453 39.89364258 64.81347656 40.35400391 C76.47781691 49.07750462 87.48936887 58.48397822 98.1640625 68.3828125 C100.76994211 70.78768763 103.40906907 73.14790507 106.0625 75.5 C113.5601308 82.23822447 120.73065349 89.32150114 127.2734375 96.99609375 C129.21741046 99.25233386 131.23323518 101.43363893 133.25 103.625 C138.35676166 109.28665596 143.0198815 115.25444265 147.67089844 121.29003906 C148.85941663 122.81913191 150.07266253 124.32893003 151.2890625 125.8359375 C165.16119015 143.23568523 177.38218598 162.46670605 188 182 C188.47598633 182.86979492 188.95197266 183.73958984 189.44238281 184.63574219 C230.63997469 260.36542862 243.38624607 340.19379595 243.23213124 425.38376892 C243.22338748 431.46170699 243.22642452 437.53964162 243.22793579 443.61758423 C243.22897782 454.11458051 243.22284418 464.61155612 243.21146011 475.1085453 C243.19956964 486.10099724 243.19191693 497.09343912 243.18975449 508.08589745 C243.18961701 508.77291835 243.18947953 509.45993925 243.18933788 510.16777896 C243.18866109 513.65772147 243.18805837 517.14766399 243.18748413 520.63760652 C243.18329873 545.26809538 243.16986743 569.8985712 243.15087891 594.52905273 C243.13246918 618.43660412 243.11832206 642.34415192 243.10986328 666.25170898 C243.10960023 666.99044051 243.10933718 667.72917204 243.10906615 668.49028938 C243.1064288 675.90987014 243.10387722 683.32945093 243.10138843 690.74903174 C243.09631789 705.85955875 243.09067539 720.97008552 243.08468628 736.08061218 C243.0844117 736.77515877 243.08413712 737.46970535 243.08385422 738.18529881 C243.06549587 784.45687139 243.03376865 830.72843636 243 877 C185.01150692 877.04588925 127.02301516 877.08107981 69.03450753 877.10213066 C62.17111697 877.10462492 55.30772644 877.10721808 48.44433594 877.10986328 C47.76141562 877.1101248 47.07849531 877.11038632 46.37488044 877.11065576 C24.31567464 877.11914936 2.25647922 877.13414997 -19.80272032 877.15259444 C-43.1543651 877.1720837 -66.50600125 877.18401116 -89.85765481 877.18817699 C-103.81808621 877.190906 -117.77848778 877.1994899 -131.73890999 877.21583293 C-141.34329468 877.22649612 -150.94766421 877.22957979 -160.55205438 877.22700275 C-166.0733611 877.2257358 -171.59461613 877.22752164 -177.11591339 877.23841095 C-197.07656524 877.27572998 -216.99537993 877.21508489 -236.92974854 876.09518433 C-238.00717979 876.03524664 -238.00717979 876.03524664 -239.10637733 875.9740981 C-288.89043698 873.11622864 -338.31800822 860.9083153 -384 841 C-385.01819824 840.55672363 -386.03639648 840.11344727 -387.08544922 839.65673828 C-435.64313662 818.31572009 -480.827944 787.990023 -518 750 C-520.72644962 747.25947232 -523.46971684 744.53780856 -526.234375 741.8359375 C-532.45499761 735.72974547 -538.39973047 729.60321903 -543.80859375 722.75 C-545.77300816 720.2848525 -547.80673684 717.89897581 -549.87646484 715.5222168 C-571.79788107 690.23037309 -589.01649208 660.78536611 -604 631 C-604.43554199 630.1435791 -604.87108398 629.2871582 -605.31982422 628.40478516 C-633.93742595 571.84073652 -648.35195962 506.97341317 -648.30078125 443.72265625 C-648.30468965 441.65359922 -648.30902851 439.58454297 -648.31376648 437.51548767 C-648.3211535 433.21041244 -648.32099423 428.9054193 -648.31567383 424.6003418 C-648.31105306 420.25778822 -648.31793233 415.9155154 -648.33618164 411.57299805 C-648.78441832 303.90475315 -618.37253634 203.1034736 -537.3359375 102.58203125 C-536.08014388 101.19393831 -534.82996623 99.80009624 -533.6171875 98.37426758 C-528.3608829 92.21856159 -522.68832915 86.50221059 -516.96777344 80.7824707 C-515.26205402 79.07456944 -513.56450973 77.35881955 -511.8671875 75.64257812 C-506.0086401 69.7541228 -500.05958436 64.22091277 -493.54492188 59.0480957 C-491.08256895 57.06644963 -488.73280202 55.00433125 -486.390625 52.8828125 C-482.02161137 48.96155492 -477.45592603 45.3814882 -472.75 41.875 C-471.89446533 41.2361084 -471.03893066 40.5972168 -470.1574707 39.93896484 C-408.36404324 -5.76693122 -337.10698596 -34.44060187 -261 -45 C-259.81470703 -45.16516113 -258.62941406 -45.33032227 -257.40820312 -45.50048828 C-169.09204708 -57.14829555 -79.28239128 -39.47458215 0 0 Z M-206.86537516 173.73163176 C-207.69428847 174.56389115 -207.69428847 174.56389115 -208.53994751 175.41296387 C-209.12389451 175.99535088 -209.70784152 176.57773789 -210.30948389 177.177773 C-212.28245331 179.14672657 -214.2517969 181.11926804 -216.22119141 183.09179688 C-217.6284745 184.49772609 -219.0359705 185.90344222 -220.44366455 187.30895996 C-224.28101855 191.14173518 -228.11517818 194.9776914 -231.94866228 198.81433678 C-235.95845276 202.82665205 -239.97067474 206.83653464 -243.98251343 210.84680176 C-250.72826333 217.59072884 -257.47189468 224.33676901 -264.21435547 231.08398438 C-272.00071574 238.87577206 -279.79065112 246.66397153 -287.58248389 254.45028639 C-294.27060457 261.13386069 -300.95676378 267.81939253 -307.64130533 274.5065465 C-311.6339177 278.50071524 -315.62719617 282.49421174 -319.62224197 286.48594666 C-323.38534085 290.24614524 -327.14596277 294.00880401 -330.90473175 297.77333069 C-332.28127243 299.15118807 -333.65865448 300.52820551 -335.0369606 301.90429688 C-343.14106197 309.91830018 -343.14106197 309.91830018 -350.79734802 318.35289001 C-354.58227427 322.79585309 -358.89099925 326.60043303 -363.23999023 330.48071289 C-372.46358366 338.79873387 -381.54637535 347.24989387 -390.5608511 355.79331303 C-395.99778378 360.93810121 -401.47444924 366.02025939 -407.07788086 370.98364258 C-435.65261002 395.17891134 -435.65261002 395.17891134 -448.87939453 428.65966797 C-449.58073909 441.25933278 -448.19262884 453.63770595 -446.37667847 466.08569717 C-445.69340561 471.37207321 -445.48420466 476.67433796 -445.27250004 481.99665737 C-445.03306755 487.99796639 -444.40236168 493.83575742 -443.375 499.75 C-443.20387695 500.74531738 -443.03275391 501.74063477 -442.85644531 502.76611328 C-433.83461584 552.07561324 -404.94291272 596.29525546 -364 625 C-332.08130202 646.85901355 -294.82275511 659.21648101 -256.06661987 659.12025452 C-254.79625795 659.12110894 -253.52589602 659.12196337 -252.21703827 659.12284368 C-248.71653387 659.12506527 -245.21606043 659.12109958 -241.71555996 659.11606562 C-237.93110599 659.11172755 -234.14665363 659.11320992 -230.36219788 659.1139679 C-223.8138475 659.11449101 -217.26550713 659.11136645 -210.71715927 659.10573006 C-201.24946991 659.09758621 -191.78178537 659.09499688 -182.31409289 659.09374207 C-166.95158002 659.09155608 -151.58907248 659.08490828 -136.2265625 659.07543945 C-121.30761746 659.06625362 -106.38867386 659.05917851 -91.46972656 659.05493164 C-90.54937216 659.05466892 -89.62901777 659.05440619 -88.68077384 659.05413551 C-84.06340218 659.05283043 -79.4460305 659.05156673 -74.82865882 659.05032361 C-36.55243549 659.0399651 1.7237819 659.02235911 40 659 C40.75658006 628.35181899 41.33870283 597.705818 41.68515587 567.05049965 C41.72641787 563.41280154 41.7691316 559.77512183 41.81274414 556.13745117 C41.82572851 555.05138461 41.82572851 555.05138461 41.83897518 553.94337731 C41.98169367 542.29391104 42.24134178 530.64994477 42.54604227 519.00371731 C42.85719287 507.008822 43.03845381 495.01675767 43.10492033 483.01799434 C43.14574612 476.29365873 43.2460189 469.58313395 43.48909187 462.86209297 C45.27041023 429.56855416 45.27041023 429.56855416 30.52836388 401.03474635 C24.45210446 394.75456658 17.79793393 389.21683741 10.77283382 384.03587246 C7.25926134 381.36364728 4.50001623 378.32590922 1.6637817 374.95684534 C-0.79312887 372.06716697 -3.45787189 369.41013058 -6.14758301 366.7388916 C-6.7244059 366.16191985 -7.3012288 365.58494809 -7.89553118 364.99049234 C-9.80363845 363.08307226 -11.71528148 361.17923782 -13.62695312 359.27539062 C-15.00599615 357.89826937 -16.38480975 356.52091835 -17.76341248 355.14335632 C-20.72043452 352.18948303 -23.67899998 349.23716762 -26.63877869 346.28605652 C-31.32351523 341.61489819 -36.00438534 336.93987815 -40.68469238 332.26428223 C-50.6201658 322.33988597 -60.55986174 312.41972367 -70.5 302.5 C-81.23292638 291.7891164 -91.96511771 281.07750251 -102.6924262 270.36099195 C-107.34050985 265.71787612 -111.99101747 261.07720627 -116.64342499 256.43842316 C-119.54176315 253.54756953 -122.4380054 250.65462296 -125.33369637 247.76111794 C-126.67152062 246.42515801 -128.0102052 245.09005893 -129.34983635 243.75591087 C-141.25941025 231.89353103 -141.25941025 231.89353103 -146.56585312 225.66194916 C-148.83530627 223.03201229 -151.27541732 220.58477317 -153.73583984 218.13476562 C-154.26194855 217.6069046 -154.78805725 217.07904358 -155.33010864 216.53518677 C-157.03791003 214.82304864 -158.74926508 213.11451746 -160.4609375 211.40625 C-161.65937645 210.20713636 -162.85766701 209.0078744 -164.05581665 207.80847168 C-166.55040294 205.31242015 -169.04676658 202.818164 -171.54443359 200.32519531 C-174.75255393 197.12281511 -177.95610542 193.91590754 -181.15837669 190.70767975 C-183.62371919 188.23873671 -186.09142217 185.77216414 -188.55986404 183.30632019 C-189.74320585 182.12364683 -190.92580152 180.94022643 -192.10764694 179.75605774 C-193.74954127 178.11164059 -195.39457721 176.47043427 -197.04052734 174.83007812 C-197.53087463 174.3377066 -198.02122192 173.84533508 -198.52642822 173.33804321 C-202.70483486 169.18607681 -202.71834773 169.60626418 -206.86537516 173.73163176 Z " fill="#FFFFFF" transform="translate(686,93)"/>
<path d="M0 0 C6.04814567 5.30248388 10.59924294 11.28884549 15 18 C17.96207849 15.82200111 20.40011411 13.59808623 22.69140625 10.74609375 C41.19012268 -11.06569851 71.82887029 -21.89622663 99.47143555 -24.80151367 C131.35233213 -27.30408864 164.89025918 -22.25809916 190 -1 C213.21556825 19.28114488 222.70240244 47.86873752 225 78 C225.5679905 90.10166249 225.361836 102.24595153 225.30418181 114.35668325 C225.28518104 119.03441618 225.28364644 123.71215753 225.28010559 128.3899231 C225.2708528 137.21136253 225.24633265 146.03268784 225.21605712 154.85407746 C225.18229989 164.9124212 225.16597399 174.97077094 225.15097082 185.0291574 C225.11977545 205.68618239 225.06485019 226.34305135 225 247 C204.21 247 183.42 247 162 247 C161.98018066 242.31731934 161.96036133 237.63463867 161.93994141 232.81005859 C161.87293421 217.3115234 161.79539358 201.813054 161.71247292 186.31459618 C161.66247047 176.92101016 161.61602671 167.52743234 161.578125 158.13378906 C161.54505911 149.94095067 161.50514865 141.74817824 161.45720994 133.55541289 C161.4320892 129.22227208 161.41026637 124.8891742 161.39665604 120.55598068 C161.38370343 116.46675487 161.36151101 112.37767741 161.33261681 108.28853416 C161.32364301 106.79797801 161.31787508 105.30739804 161.31578636 103.81681633 C161.28115441 82.8321873 158.50548984 62.19092903 143.6875 46.1875 C130.28107001 33.7620283 112.83582573 31.28858762 95.28027344 31.86376953 C78.57388309 32.86186009 63.1900256 40.10597283 51.75 52.25 C36.84832485 70.13810493 33.71490325 91.52042086 33.68115234 114.17529297 C33.67182539 115.635473 33.66165276 117.09564783 33.65071106 118.55581665 C33.62370825 122.47220717 33.60835127 126.38856235 33.59528303 130.30502081 C33.57952051 134.41563761 33.55277307 138.52618356 33.5272522 142.63674927 C33.48069444 150.39943612 33.44383996 158.16213666 33.41057932 165.92489064 C33.37219413 174.77152397 33.32282763 183.61808574 33.27259517 192.4646585 C33.16961795 210.64305911 33.08169669 228.82149044 33 247 C12.21 247 -8.58 247 -30 247 C-30.01981934 242.31731934 -30.03963867 237.63463867 -30.06005859 232.81005859 C-30.12706579 217.3115234 -30.20460642 201.813054 -30.28752708 186.31459618 C-30.33752953 176.92101016 -30.38397329 167.52743234 -30.421875 158.13378906 C-30.45494089 149.94095067 -30.49485135 141.74817824 -30.54279006 133.55541289 C-30.5679108 129.22227208 -30.58973363 124.8891742 -30.60334396 120.55598068 C-30.61629657 116.46675487 -30.63848899 112.37767741 -30.66738319 108.28853416 C-30.67635699 106.79797801 -30.68212492 105.30739804 -30.68421364 103.81681633 C-30.71884559 82.8321873 -33.49451016 62.19092903 -48.3125 46.1875 C-61.71892999 33.7620283 -79.16417427 31.28858762 -96.71972656 31.86376953 C-113.42611691 32.86186009 -128.8099744 40.10597283 -140.25 52.25 C-155.15167515 70.13810493 -158.28509675 91.52042086 -158.31884766 114.17529297 C-158.32817461 115.635473 -158.33834724 117.09564783 -158.34928894 118.55581665 C-158.37629175 122.47220717 -158.39164873 126.38856235 -158.40471697 130.30502081 C-158.42047949 134.41563761 -158.44722693 138.52618356 -158.4727478 142.63674927 C-158.51930556 150.39943612 -158.55616004 158.16213666 -158.58942068 165.92489064 C-158.62780587 174.77152397 -158.67717237 183.61808574 -158.72740483 192.4646585 C-158.83038205 210.64305911 -158.91830331 228.82149044 -159 247 C-179.79 247 -200.58 247 -222 247 C-222 158.56 -222 70.12 -222 -21 C-201.87 -21 -181.74 -21 -161 -21 C-160.67 -11.1 -160.34 -1.2 -160 9 C-158.68 7.35 -157.36 5.7 -156 4 C-113.94053525 -33.97434574 -43.74019752 -36.19878415 0 0 Z " fill="#FFFFFF" transform="translate(2175,641)"/>
<path d="M0 0 C4.48737463 4.02130909 8.67287446 8.36818696 12.93359375 12.62890625 C13.26359375 2.06890625 13.59359375 -8.49109375 13.93359375 -19.37109375 C34.06359375 -19.37109375 54.19359375 -19.37109375 74.93359375 -19.37109375 C74.95570188 9.17288565 74.97414176 37.7168585 74.98465908 66.26084436 C74.98590956 69.64232073 74.9872039 73.02379709 74.98852539 76.40527344 C74.98891886 77.41492152 74.98891886 77.41492152 74.98932027 78.44496654 C74.99365364 89.29710466 75.00152818 100.1492374 75.01074655 111.00137235 C75.02014829 122.16374052 75.02558838 133.32610652 75.02768224 144.48847854 C75.02897859 150.74678122 75.03199557 157.00507175 75.03932381 163.26337051 C75.04618488 169.171388 75.04819051 175.0793885 75.04670143 180.98740959 C75.04697328 183.13899643 75.0489179 185.29058393 75.05279922 187.44216728 C75.07107838 198.11158497 74.96714713 208.7588063 74.50462341 219.41940308 C74.4679226 220.28942904 74.43122179 221.159455 74.39340883 222.05584538 C72.68200921 257.36268025 62.34113394 291.54930009 36.18359375 316.31640625 C14.0370601 335.32899646 -13.39288097 344.29406389 -42.06640625 347.62890625 C-42.87045898 347.72316895 -43.67451172 347.81743164 -44.50292969 347.91455078 C-52.67760706 348.76677843 -60.85521729 348.87213532 -69.06640625 348.87890625 C-69.80840271 348.87958099 -70.55039917 348.88025574 -71.31488037 348.88095093 C-93.997015 348.84849848 -116.02301013 345.98341189 -138.06640625 340.62890625 C-139.22873779 340.34708496 -139.22873779 340.34708496 -140.41455078 340.05957031 C-162.45025444 334.53957489 -183.07621291 324.43362604 -201.06640625 310.62890625 C-197.14260623 302.28377078 -192.45174548 294.47085329 -187.62890625 286.62890625 C-186.88308381 285.41038859 -186.13763926 284.19163956 -185.39257812 282.97265625 C-184.30354094 281.19110357 -183.21420808 279.40974072 -182.12319946 277.62939453 C-179.07174668 272.64859085 -176.0592269 267.6451135 -173.06640625 262.62890625 C-169.5465049 263.98313282 -166.81976287 265.40647846 -163.81640625 267.69140625 C-140.85041667 283.88494343 -111.10682493 293.66023321 -82.97265625 293.83203125 C-82.22286499 293.83773132 -81.47307373 293.8434314 -80.70056152 293.8493042 C-79.12070089 293.8586891 -77.54082125 293.86526202 -75.9609375 293.86914062 C-73.59989125 293.87876969 -71.23974626 293.90982311 -68.87890625 293.94140625 C-47.49491892 294.09080376 -25.5287814 289.52954017 -9.31640625 274.56640625 C8.88027831 255.05112136 10.38000406 228.90946546 9.93359375 203.62890625 C9.16917969 204.31855469 8.40476562 205.00820313 7.6171875 205.71875 C-19.54262716 229.74473989 -54.2349996 238.47714835 -90.07788086 236.30834961 C-126.69893465 233.4466457 -160.57484794 218.5387237 -185.06640625 190.62890625 C-194.8621428 178.79437037 -202.45807738 165.14611333 -207.44140625 150.62890625 C-207.66795898 149.97889648 -207.89451172 149.32888672 -208.12792969 148.65917969 C-212.27335248 135.69927897 -213.5710925 122.42915742 -213.45751953 108.89941406 C-213.44140654 106.62894691 -213.45750392 104.36025855 -213.4765625 102.08984375 C-213.5263164 67.71869553 -199.98597906 37.33448265 -176.37890625 12.56640625 C-132.33773676 -30.45055 -49.35773505 -38.11556763 0 0 Z M-132.19140625 56.40625 C-147.8804118 75.00425866 -150.69317305 96.1251953 -149.06640625 119.62890625 C-146.87649638 137.72486151 -136.4656935 154.28777369 -122.31640625 165.44140625 C-101.1184451 180.40467295 -75.438556 185.14883855 -49.8984375 180.91015625 C-41.8641704 179.26180967 -34.28781003 176.52436381 -27.06640625 172.62890625 C-26.22851562 172.18804688 -25.390625 171.7471875 -24.52734375 171.29296875 C-7.71936947 161.8742587 4.54403063 146.20639151 9.80859375 127.69140625 C14.8510336 107.55356102 12.48374794 85.84736251 2.30078125 67.72265625 C-9.07838335 49.14859386 -25.03268135 39.11441355 -45.875 33.390625 C-76.26600917 26.13695696 -110.27050564 33.46885602 -132.19140625 56.40625 Z " fill="#FFFFFF" transform="translate(1312.06640625,639.37109375)"/>
<path d="M0 0 C20.79 0 41.58 0 63 0 C63.33 43.89 63.66 87.78 64 133 C66.64 130.36 69.28 127.72 72 125 C98.98222466 103.24902298 132.69121543 97.25776495 166.55859375 100.46875 C196.67221226 103.92677318 223.11945539 116.080815 245 137 C245.66128906 137.598125 246.32257812 138.19625 247.00390625 138.8125 C270.77417841 161.09412885 282.78143743 194.98148536 284.12451172 226.96508789 C285.12042198 266.79840561 277.09258981 303.91429434 249.1953125 333.70703125 C248.47085938 334.46371094 247.74640625 335.22039062 247 336 C246.31679687 336.74636719 245.63359375 337.49273438 244.9296875 338.26171875 C222.86834303 361.58487443 189.72615123 373.78016511 158.0793457 375.12402344 C125.40301966 375.96447193 94.25880095 370.0640119 69 348 C66.69 345.69 64.38 343.38 62 341 C61.67 351.23 61.34 361.46 61 372 C40.87 372 20.74 372 0 372 C0 249.24 0 126.48 0 0 Z M79 183 C64.29125795 202.73541895 59.49186127 227.39273779 62.49609375 251.55859375 C65.77609353 273.61036055 76.32049791 293.20073747 94 307 C112.81546221 319.98789544 135.51899007 323.86586544 157.8125 319.8125 C177.67821868 315.23787821 194.52867809 304.66926227 205.875 287.5625 C206.95066589 285.72784844 207.99233307 283.87286167 209 282 C209.79857422 280.52466797 209.79857422 280.52466797 210.61328125 279.01953125 C220.88396704 258.50364523 223.11119375 231.80871722 216.390625 209.78515625 C209.63052382 190.41797084 197.87933406 174.28881283 180 164 C179.22011719 163.5359375 178.44023437 163.071875 177.63671875 162.59375 C144.40144709 144.27245739 103.04623887 155.76354701 79 183 Z " fill="#FFFFFF" transform="translate(2480,516)"/>
<path d="M0 0 C21.78 0 43.56 0 66 0 C66 44.55 66 89.1 66 135 C73.49485249 134.83139881 73.49485249 134.83139881 76.25 131.99609375 C76.8275 131.15175781 77.405 130.30742187 78 129.4375 C90.98347723 111.78298455 109.31583042 103.28771844 130.484375 99.5234375 C163.06348565 94.67276991 195.47974192 100.15430094 222.43457031 119.7578125 C249.30920344 140.26443118 264.6661976 170.920566 269.28256226 204.02636719 C269.98038519 209.85889675 270.17606385 215.62126362 270.203125 221.4921875 C270.20882507 222.47760529 270.21452515 223.46302307 270.22039795 224.478302 C270.22979654 226.55746404 270.23636133 228.63664064 270.24023438 230.71582031 C270.24986603 233.83165958 270.28090879 236.94681706 270.3125 240.0625 C270.39832859 256.11755598 269.15557047 271.78928014 264.3125 287.1875 C264.05831299 288.01008301 263.80412598 288.83266602 263.54223633 289.68017578 C260.88439282 297.91384244 257.30025436 305.50605857 253 313 C252.65066406 313.61069336 252.30132813 314.22138672 251.94140625 314.85058594 C246.65399542 323.91956074 240.40591794 331.58376741 233 339 C232.13632813 339.87527344 231.27265625 340.75054687 230.3828125 341.65234375 C207.57292479 363.61616738 177.1639066 370.51434241 146.46484375 370.21875 C124.9716163 369.71131066 105.59026893 364.06877728 89 350 C88.14019531 349.27425781 87.28039063 348.54851562 86.39453125 347.80078125 C81.52276626 343.56227375 77.38041548 339.52134528 74 334 C74 333.34 74 332.68 74 332 C71.03 332 68.06 332 65 332 C65 342.23 65 352.46 65 363 C43.55 363 22.1 363 0 363 C0 243.21 0 123.42 0 0 Z M82.0625 177.55859375 C64.43048552 198.42982301 63.52253981 223.99314049 65 250 C66.60816722 266.88433765 73.71856665 282.26392337 86 294 C86.61230469 294.63164062 87.22460938 295.26328125 87.85546875 295.9140625 C100.92939308 308.56984426 119.58502344 312.66150489 137.20556641 312.47070312 C156.99413128 311.79120537 173.25101323 304.10637634 187 290 C187.61617187 289.39285156 188.23234375 288.78570312 188.8671875 288.16015625 C201.72362618 274.53766035 204.19087226 254.46842639 204.24023438 236.62402344 C204.24984927 234.532784 204.28089292 232.44256843 204.3125 230.3515625 C204.4222988 216.4293005 202.22073589 203.61971637 196 191 C195.58105469 190.14921875 195.16210938 189.2984375 194.73046875 188.421875 C186.69499633 173.69403506 173.13755124 164.17751693 157.46875 159 C131.0021048 151.36997616 101.33662616 157.21750704 82.0625 177.55859375 Z " fill="#FFFFFF" transform="translate(1430,131)"/>
<path d="M0 0 C4.48891218 3.76227821 8.78345056 7.63721868 12.91601562 11.78662109 C13.46174728 12.33060043 14.00747894 12.87457977 14.56974792 13.43504333 C16.35108416 15.21202265 18.12878907 16.99258248 19.90625 18.7734375 C21.15728432 20.02379691 22.40846694 21.27400796 23.65979004 22.52407837 C26.27368169 25.1365013 28.88577073 27.75070966 31.49658203 30.36621094 C34.82499887 33.7003186 38.15787781 37.0299238 41.49213409 40.35819054 C44.07461357 42.937037 46.65468253 45.51828459 49.23405457 48.1002388 C50.46118508 49.32803133 51.68904478 50.55509556 52.91767883 51.78138351 C54.64222768 53.5033612 56.36348564 55.22856667 58.08398438 56.95458984 C58.58081223 57.44939346 59.07764008 57.94419708 59.58952332 58.45399475 C62.32170379 61.20225549 64.88006473 64.02680908 67.37831116 66.99038696 C70.83834842 70.97679529 74.63691867 74.06348676 78.86303711 77.19921875 C147.12467925 129.37024664 147.12467925 129.37024664 152.13757133 166.46165562 C155.43084681 197.69962575 151.23774828 228.9212152 148 260 C120.66954017 260.09365446 93.33910458 260.16408242 66.00851631 260.20724869 C53.31698348 260.22782884 40.62555065 260.25586217 27.93408203 260.30175781 C16.86558043 260.34176513 5.7971513 260.36746581 -5.2714206 260.37635398 C-11.12614617 260.38154526 -16.98066451 260.39365104 -22.83532333 260.42292023 C-28.35927707 260.45030929 -33.88294053 260.45839803 -39.40695572 260.45243073 C-41.42155796 260.45352055 -43.43617112 260.4613331 -45.45071411 260.4768219 C-74.02993019 260.68555526 -98.04126709 253.04595727 -119 233 C-120.01513672 232.09701172 -120.01513672 232.09701172 -121.05078125 231.17578125 C-139.2545382 214.35828235 -147.00751039 189.69765557 -148.34375 165.58984375 C-148.40135526 163.70588991 -148.45337919 161.82175766 -148.5 159.9375 C-148.58121094 158.52500977 -148.58121094 158.52500977 -148.6640625 157.08398438 C-148.69113281 155.69469727 -148.69113281 155.69469727 -148.71875 154.27734375 C-148.74904297 153.45484131 -148.77933594 152.63233887 -148.81054688 151.78491211 C-146.10111276 142.47572085 -134.02615043 133.89335342 -127.26196289 127.1484375 C-125.87157052 125.75832756 -124.48139903 124.36799667 -123.09143066 122.97746277 C-119.33593581 119.22168215 -115.57737561 115.468983 -111.8182404 111.71684647 C-107.88333167 107.788208 -103.95127288 103.85671918 -100.01890564 99.92553711 C-92.58024925 92.48998323 -85.13904842 85.05698118 -77.69692081 77.62490177 C-69.22093629 69.160112 -60.74780632 60.69246733 -52.27491009 52.22458649 C-34.85310533 34.81322163 -17.42773457 17.40542933 0 0 Z " fill="#FFFFFF" transform="translate(483,397)"/>
<path d="M0 0 C0.59039063 0.44601563 1.18078125 0.89203125 1.7890625 1.3515625 C15.99261174 12.44200506 24.88464187 31.58106728 28 49 C28.1662236 49.92138763 28.3324472 50.84277527 28.50370789 51.79208374 C30.27822987 63.16583696 30.2955705 74.46679446 30.30496025 85.95930672 C30.3086639 89.6041979 30.32549324 93.24882662 30.34571838 96.8936615 C30.40078792 107.24473201 30.43192575 117.59583772 30.45629883 127.94702148 C30.47216461 134.30564944 30.5023543 140.66408387 30.54106331 147.02261162 C30.55270141 149.43750394 30.55864355 151.85243078 30.55874443 154.26735115 C30.55893632 157.63425147 30.57718607 161.00061472 30.59936523 164.36743164 C30.59478806 165.36022629 30.59021088 166.35302094 30.585495 167.37590027 C30.64042173 172.61670183 30.86632959 176.57688693 34 181 C41.74744273 186.19377974 41.74744273 186.19377974 65 185 C65 203.15 65 221.3 65 240 C57.059375 240.061875 49.11875 240.12375 40.9375 240.1875 C38.4637085 240.21481201 35.98991699 240.24212402 33.44116211 240.27026367 C15.4281845 240.38728203 -1.37647913 240.04449509 -15.4375 227.25 C-20.41783447 221.89128283 -23.19800249 215.73264727 -23.25 208.375 C-23.1675 207.26125 -23.085 206.1475 -23 205 C-26.3359357 204.53856672 -28.88361488 204.66512328 -32 206 C-34.07826274 208.98205471 -35.50762891 212.09089847 -37.0703125 215.37109375 C-42.09149216 225.42149125 -51.2502051 232.81955342 -61 238 C-62.32644531 238.70576172 -62.32644531 238.70576172 -63.6796875 239.42578125 C-88.6530125 251.6952844 -122.39047759 249.5289428 -148.28857422 241.10742188 C-168.92384294 233.93264968 -185.97838935 221.07164353 -196.27734375 201.56640625 C-205.86903744 181.70877283 -206.54284284 157.01323944 -199.75 136.1875 C-195.83443737 125.26034847 -190.10746257 117.24700581 -182 109 C-181.07767578 108.05833984 -181.07767578 108.05833984 -180.13671875 107.09765625 C-171.47496075 98.91813745 -160.94252767 94.02011158 -149.8125 90.1875 C-149.02528564 89.90970703 -148.23807129 89.63191406 -147.42700195 89.34570312 C-131.78347267 84.26159476 -115.63568508 83.56249913 -99.33203125 83.70703125 C-97.43104899 83.71264661 -95.5300623 83.71690749 -93.6290741 83.71989441 C-88.69560134 83.73119079 -83.76240588 83.76052128 -78.82904053 83.79400635 C-73.76692452 83.82504091 -68.70476243 83.83847008 -63.64257812 83.85351562 C-53.76159884 83.88541024 -43.88082273 83.93641523 -34 84 C-34.13271162 80.79519445 -34.27634779 77.59096591 -34.421875 74.38671875 C-34.45909668 73.48465698 -34.49631836 72.58259521 -34.53466797 71.65319824 C-35.11039006 59.28928404 -38.02075032 48.45007201 -47.1875 39.6875 C-51.76560463 35.87493935 -56.31254535 33.68582899 -62 32 C-62.73347656 31.77570313 -63.46695312 31.55140625 -64.22265625 31.3203125 C-79.28934636 27.54717913 -98.18974179 28.93691453 -111.765625 36.5234375 C-122.88307836 43.87028605 -128.74852826 56.37180925 -132 69 C-139.59837425 67.01050259 -147.05891233 64.74192101 -154.50390625 62.2421875 C-156.07155983 61.7194072 -156.07155983 61.7194072 -157.67088318 61.18606567 C-159.85699349 60.45636311 -162.04262242 59.7252169 -164.2277832 58.99267578 C-167.58363782 57.86791537 -170.94110229 56.74806671 -174.29882812 55.62890625 C-176.42978267 54.91695146 -178.56064543 54.20472188 -180.69140625 53.4921875 C-181.69651749 53.15677948 -182.70162872 52.82137146 -183.73719788 52.47579956 C-185.12520851 52.00993942 -185.12520851 52.00993942 -186.54125977 51.53466797 C-187.35635513 51.26169891 -188.1714505 50.98872986 -189.01124573 50.70748901 C-191 50 -191 50 -193 49 C-190.46047322 29.67624448 -175.80258988 10.83137539 -161 -1.1875 C-143.78797745 -14.04059995 -123.3506087 -21.84817164 -102 -24 C-100.99453125 -24.10957031 -99.9890625 -24.21914062 -98.953125 -24.33203125 C-64.53449885 -27.54272399 -27.26851303 -22.95728567 0 0 Z M-131.5625 144.4375 C-137.51188609 152.56306271 -138.08803473 160.00891181 -137 170 C-134.882084 177.40290082 -130.42858611 182.85150355 -124 187 C-108.30312294 194.94125843 -89.05343488 195.53584798 -72.32421875 190.25390625 C-57.10668953 184.51380416 -45.47380122 175.44918076 -38.25 160.6875 C-35.07691979 153.29044807 -33.95895312 146.3163422 -33.98364258 138.30664062 C-33.98600418 137.31361938 -33.98836578 136.32059814 -33.99079895 135.29748535 C-33.9938353 134.53931519 -33.99687164 133.78114502 -34 133 C-42.91960031 132.9534128 -51.83915795 132.91799793 -60.75885391 132.89637566 C-64.90178004 132.88599179 -69.04462219 132.87193271 -73.1875 132.84912109 C-77.19458579 132.82719828 -81.20159141 132.81539093 -85.2087326 132.81024551 C-86.72834279 132.80658431 -88.24794919 132.79943625 -89.76752472 132.78853989 C-104.38990388 132.68797265 -120.92017646 132.77036012 -131.5625 144.4375 Z " fill="#FFFFFF" transform="translate(1342,254)"/>
<path d="M0 0 C1.1446875 0.50015625 2.289375 1.0003125 3.46875 1.515625 C30.77840843 14.18632238 51.47960385 37.9175409 62.53125 65.7109375 C76.46798237 104.88675227 75.24707657 152.63931316 58.14599609 190.60595703 C52.55760297 202.28038885 45.05439069 211.85198932 36 221 C35.26136719 221.79921875 34.52273438 222.5984375 33.76171875 223.421875 C12.08985379 246.40118336 -22.15852734 257.87034126 -53.09277344 259.12548828 C-94.4476384 260.307565 -132.36360917 251.18565171 -163.39404297 222.53808594 C-186.8587578 200.0650389 -197.97464188 167.35124995 -199.12768555 135.46948242 C-199.20627379 131.54185058 -199.24657278 127.61579521 -199.25 123.6875 C-199.25067474 122.98679382 -199.25134949 122.28608765 -199.25204468 121.56414795 C-199.21614821 97.94427055 -195.94062641 75.17812773 -185 54 C-184.55011719 53.08089844 -184.10023437 52.16179687 -183.63671875 51.21484375 C-168.99321497 22.54657578 -142.1121958 3.53341368 -112.08154297 -6.359375 C-75.97990746 -17.47017626 -34.42945378 -15.66385059 0 0 Z M-115.8671875 67.421875 C-131.77827261 86.6550548 -134.95336785 111.32811882 -132.77294922 135.51904297 C-130.53049311 155.83561621 -123.34957294 173.86349123 -107 187 C-90.86150058 198.63838671 -71.26368509 202.16540188 -51.734375 199.71582031 C-33.17792156 196.51139571 -17.60421236 186.65783692 -6.5234375 171.49609375 C6.56470473 150.05167609 8.1480724 121.08373916 2.51123047 96.90332031 C-1.90633393 79.80943842 -11.01925806 65.77942834 -26 56 C-54.65891327 39.33144139 -92.64271108 42.94877082 -115.8671875 67.421875 Z " fill="#FFFFFF" transform="translate(1922,242)"/>
<path d="M0 0 C26.48988327 23.41055944 41.9041498 54.94251405 44.5859375 90.1171875 C46.10082987 119.32167772 42.3060705 147.48046851 27.5859375 173.1171875 C27.24191895 173.71724609 26.89790039 174.31730469 26.54345703 174.93554688 C8.44780487 205.87953388 -21.5165844 226.96546678 -55.8359375 236.3671875 C-60.00011496 237.44023847 -64.1882255 238.32471391 -68.4140625 239.1171875 C-70.21230469 239.45556641 -70.21230469 239.45556641 -72.046875 239.80078125 C-112.22384645 245.9851346 -153.97004903 237.98112851 -187.14453125 214.15625 C-189.63836224 212.21351997 -192.03202875 210.1952935 -194.4140625 208.1171875 C-195.35636719 207.31925781 -196.29867187 206.52132812 -197.26953125 205.69921875 C-222.9447464 183.48446692 -237.95867774 151.07908307 -240.85546875 117.44140625 C-243.62579837 78.80782819 -234.02747752 42.50458143 -208.70703125 12.6953125 C-156.96150721 -45.48534486 -58.81791385 -50.44909995 0 0 Z M-159.24609375 48.28125 C-171.6705475 64.53377869 -177.02663276 83.07229903 -176.8515625 103.4296875 C-176.84253906 104.6971582 -176.83351563 105.96462891 -176.82421875 107.27050781 C-176.44939913 127.63050111 -170.57442124 146.9607579 -156.4140625 162.1171875 C-155.71539063 162.89449219 -155.01671875 163.67179688 -154.296875 164.47265625 C-141.20643769 178.37833432 -122.42154867 186.61033356 -103.35546875 187.3203125 C-79.04368609 187.76068314 -59.21919957 181.30290406 -41.2265625 164.4296875 C-24.01074398 146.58535497 -18.78379715 122.59166802 -19.13671875 98.5625 C-19.78454905 80.57151123 -25.07783475 63.25825511 -36.4140625 49.1171875 C-37.39826172 47.87001953 -37.39826172 47.87001953 -38.40234375 46.59765625 C-50.17753295 32.58367423 -67.27164072 23.50248838 -85.4140625 21.1171875 C-114.25654393 18.81463646 -139.81743003 25.92968997 -159.24609375 48.28125 Z " fill="#FFFFFF" transform="translate(3041.4140625,649.8828125)"/>
<path d="M0 0 C21.12 0 42.24 0 64 0 C64.01458252 4.63667725 64.02916504 9.27335449 64.04418945 14.05053711 C64.09464885 29.41336294 64.16111637 44.77608921 64.23571491 60.13881588 C64.28053275 69.44824523 64.31997908 78.75763753 64.34643555 88.06713867 C64.3695298 96.18861498 64.4030535 104.30997262 64.44870156 112.43135458 C64.47248094 116.72492883 64.49130916 121.01838666 64.49761391 125.31202507 C64.50373486 129.3676675 64.5239814 133.42301267 64.55427551 137.47854424 C64.56294508 138.95332257 64.56680188 140.42813993 64.56500816 141.90294266 C64.54886035 161.33625243 67.42116333 180.47600902 80 196 C80.71349609 196.93585938 80.71349609 196.93585938 81.44140625 197.890625 C90.27884557 208.13559381 106.09758321 213.19447757 119.1015625 214.15527344 C138.86149625 215.21134764 159.52203016 211.55681026 174.83203125 198.14453125 C199.95529474 173.29287061 198.11788457 138.86990283 198.30332303 106.11726952 C198.32545895 102.37637509 198.35271021 98.63551768 198.37937927 94.89465332 C198.42893849 87.83680431 198.47401087 80.77893435 198.51740164 73.72104502 C198.57641425 64.16533464 198.64249923 54.60967321 198.70815182 45.05400658 C198.81114997 30.03603755 198.90482104 15.01802533 199 0 C219.79 0 240.58 0 262 0 C262 88.44 262 176.88 262 268 C242.2 268 222.4 268 202 268 C201.67 257.44 201.34 246.88 201 236 C198.03 238.97 195.06 241.94 192 245 C165.45579702 266.87978812 132.88364524 273.40528475 99.14111328 270.77734375 C81.07300597 268.8994508 64.84946941 263.79742518 49 255 C48.02546875 254.47921875 47.0509375 253.9584375 46.046875 253.421875 C24.05681562 240.69078799 10.7195086 217.41938266 4.1875 193.5625 C3.8949231 192.5101416 3.8949231 192.5101416 3.59643555 191.43652344 C0.13661594 177.79259435 -0.29581577 163.73383947 -0.22705078 149.73999023 C-0.22648471 148.0921835 -0.22680704 146.44437627 -0.22793579 144.79656982 C-0.22850267 140.38238228 -0.2168579 135.9683065 -0.20278788 131.55414462 C-0.19016788 126.91908274 -0.18910123 122.28401745 -0.18673706 117.64894104 C-0.18055506 108.89819733 -0.16418929 100.14750442 -0.14403808 91.39678293 C-0.12157615 81.4231878 -0.11065993 71.44959006 -0.10064721 61.47597587 C-0.07981962 40.98394939 -0.0431851 20.49199241 0 0 Z " fill="#FFFFFF" transform="translate(1610,620)"/>
<path d="M0 0 C20.79 0 41.58 0 63 0 C63 122.76 63 245.52 63 372 C42.21 372 21.42 372 0 372 C0 249.24 0 126.48 0 0 Z " fill="#FFFFFF" transform="translate(1468,516)"/>
</svg>
